<svg width="31" height="30" viewBox="0 0 31 30" fill="none" xmlns="http://www.w3.org/2000/svg">
<path fill-rule="evenodd" clip-rule="evenodd" d="M12.8957 29.8346C13.6155 29.8298 14.3201 29.8251 15.0018 29.8422C15.5944 29.8369 16.1735 29.8356 16.7421 29.8343C18.5941 29.8299 20.3353 29.8259 22.0735 29.6887C26.36 29.3507 29.2477 26.7648 29.6855 22.505C30.182 17.6666 30.1682 12.7877 29.7467 7.95027C29.3547 3.44979 26.7014 0.88164 22.181 0.49962C17.4809 0.10293 12.7489 0.09585 8.04915 0.51279C3.49327 0.9171 0.795429 3.85308 0.550994 8.4255C0.312728 12.8804 0.301506 17.3424 0.555923 21.7973C0.803799 26.1356 3.32069 28.9054 7.58992 29.5772C9.37704 29.8581 11.1797 29.8461 12.8957 29.8346ZM27.2846 13.9929C27.2862 14.3839 27.2877 14.7779 27.2904 15.1755C27.2846 15.6863 27.2847 16.2029 27.2849 16.7239C27.2855 18.5726 27.2861 20.4764 27.0176 22.3713C26.6574 24.9115 25.1434 26.4836 22.627 26.89C21.3497 27.0962 20.0622 27.163 18.7699 27.1595C17.8741 27.1566 16.9783 27.1638 16.0824 27.1711C13.5773 27.1914 11.0721 27.2117 8.5693 27.009C6.49847 26.8408 4.79905 26.092 3.82298 24.1313C3.46041 23.4018 3.31337 22.6099 3.26554 21.8185C2.98161 17.1296 2.85674 12.4345 3.35628 7.75521C3.64135 5.08725 5.26675 3.56988 7.93733 3.21219C9.26488 3.03435 10.6006 2.95938 11.9382 2.96292C12.7262 2.96447 13.5143 2.95874 14.3023 2.95301C16.8449 2.93451 19.3873 2.91602 21.9272 3.14226C25.0716 3.42192 26.8829 5.10954 27.1424 8.65551C27.2707 10.4129 27.2775 12.1706 27.2846 13.9929ZM7.58772 15.0807C7.5866 19.2336 10.9995 22.6474 15.1532 22.6509C19.3262 22.654 22.749 19.2716 22.7674 15.1288C22.7852 10.9298 19.3903 7.49532 15.2017 7.47858C11.025 7.45884 7.58877 10.8903 7.58772 15.0807ZM20.1057 15.1395C20.0741 17.8774 17.8752 20.0194 15.1242 19.9916C12.348 19.9647 10.2182 17.7654 10.2533 14.9632C10.2866 12.2587 12.5362 10.0903 15.2658 10.1314C17.982 10.1739 20.1374 12.4031 20.1057 15.1395ZM23.096 5.37147C22.1248 5.36337 21.2979 6.18768 21.3002 7.15941C21.3029 8.13417 22.1293 8.95746 23.0954 8.94834C24.0236 8.94075 24.8689 8.06628 24.8722 7.11279C24.8755 6.20694 24.0303 5.37909 23.096 5.37147Z" fill="#inherit"/>
</svg>
