<svg width="31" height="32" viewBox="0 0 31 32" fill="none" xmlns="http://www.w3.org/2000/svg">
<path fill-rule="evenodd" clip-rule="evenodd" d="M19.3367 22.968C17.4248 22.5738 15.2995 21.7211 13.4651 20.2276C11.5411 18.662 10.0638 16.7094 8.9377 14.5051C7.82648 12.3296 8.02001 10.304 9.37852 8.79827C10.5678 7.47949 12.0624 7.74397 12.6783 9.38192C12.8246 9.7695 12.9198 10.1834 13.1135 10.5442C13.7346 11.7023 13.6735 12.7242 12.6355 13.6144C12.2524 13.9422 12.3114 14.3212 12.5474 14.7295C13.5976 16.5423 15.0325 17.9289 16.9067 18.8647C17.4823 19.152 17.9205 19.1099 18.314 18.5855C18.5045 18.3327 18.7517 18.1215 18.9387 17.8651C19.3651 17.2825 19.866 17.1604 20.503 17.5145C21.251 17.9305 22.0047 18.3383 22.7725 18.7142C23.4257 19.0339 23.5781 19.5416 23.4655 20.2149C23.199 21.8128 21.65 22.9654 19.3367 22.968ZM0.540826 31.1269L2.91341 23.0268C1.53555 20.7058 0.810464 18.0632 0.810464 15.341C0.810464 7.07318 7.47949 0.34752 15.677 0.34752C23.8752 0.34752 30.5441 7.07318 30.5441 15.341C30.5441 23.6094 23.8752 30.3355 15.677 30.3355C13.2638 30.3355 10.8832 29.7402 8.7553 28.6094L0.540826 31.1269ZM9.07274 25.7079L9.57261 26.0012C11.4234 27.0814 13.5339 27.6529 15.677 27.6529C22.4082 27.6529 27.8843 22.1305 27.8843 15.341C27.8843 8.55306 22.4082 3.03018 15.677 3.03018C8.94582 3.03018 3.47029 8.55306 3.47029 15.341C3.47029 17.7491 4.16129 20.0832 5.4698 22.091L5.80866 22.6108L4.48939 27.1133L9.07274 25.7079Z" fill="#00BE50"/>
</svg>
