<svg width="285" height="118" viewBox="0 0 285 118" fill="none" xmlns="http://www.w3.org/2000/svg">
<g clip-path="url(#clip0_7_4)">
<path d="M281.129 40.26C280.321 39.6119 279.421 39.0487 278.364 38.5217C277.355 38.025 276.261 37.6192 275.107 37.3164C274.256 37.0984 273.448 36.953 272.658 36.8742C272.305 36.5775 271.941 36.2988 271.57 36.0323C270.227 35.0693 268.902 34.403 267.511 33.9851C266.66 33.7307 265.773 33.6035 264.885 33.6035C263.02 33.6035 255.551 37.0923 255.551 30.5024V9.08531C255.551 4.07022 251.468 0 246.436 0H63.5339C58.5022 0 54.4185 4.07022 54.4185 9.08531V9.88482C54.4185 11.9684 53.9628 16.4989 47.4423 16.5474C46.6523 16.5534 44.6408 16.8018 39.518 17.1167C35.2399 17.3832 31.9826 17.5831 29.7464 17.7224C27.7349 17.8496 25.5168 17.9162 23.159 17.9162C21.8464 17.9162 21.0989 17.892 20.6918 17.8678C20.2664 17.8435 19.8167 17.7951 19.3549 17.7224C15.4231 17.0986 11.5461 19.0973 9.77162 22.6466C9.28547 23.6218 8.90262 24.6999 8.64739 25.8205C8.39216 26.941 8.26455 27.9767 8.26455 29.0003C8.26455 32.4588 9.57108 35.5781 11.9775 37.9463C11.7466 38.6247 11.4975 39.3333 11.2361 40.0602C10.8229 41.1928 9.89923 43.6155 8.48332 47.2497C7.04917 50.9262 5.94318 53.7608 5.15926 55.7475C4.38142 57.7099 3.71296 59.3816 3.15996 60.7444C2.6252 62.0527 2.17551 63.1187 1.81697 63.9242C1.40374 64.8509 1.05128 65.6505 0.75959 66.3106C-0.425403 69.0181 -0.218789 72.1252 1.31259 74.657C2.78927 77.0919 4.4908 79.0846 6.36248 80.5928C8.48332 82.3008 10.9323 83.4879 13.6487 84.1239C14.3414 84.2874 15.0403 84.3662 15.7391 84.3662C17.5075 84.3662 19.2516 83.8513 20.7586 82.8641C22.8552 81.4892 24.2832 79.3148 24.7208 76.8496C24.7208 76.8375 24.7208 76.8254 24.7268 76.8133C25.4014 77.8369 26.161 78.6303 26.9206 79.2421C26.9267 79.2542 26.9388 79.2663 26.9449 79.2724C27.82 80.4656 28.9381 81.5073 30.2811 82.3795C31.217 82.9852 32.244 83.4455 33.3682 83.7605C33.3682 83.924 33.3621 84.0815 33.3621 84.239C33.3621 85.408 33.4046 86.4982 33.4836 87.4734C33.5687 88.497 33.7146 89.4418 33.9333 90.3322C34.4559 93.7604 36.1879 96.1407 38.2175 97.6126C39.8583 99.6658 42.0764 101.017 44.6104 101.477C45.1634 101.58 45.7103 101.628 46.2512 101.628C50.3713 101.628 52.9236 94.8022 54.5644 97.0553C56.667 99.9384 63.6129 106.425 82.5181 117.649C85.1372 121.119 112.623 97.9396 113.346 97.4793C114.482 98.3152 115.753 99.0541 117.156 99.6719C118.572 100.296 120.104 100.792 121.708 101.144C123.361 101.507 125.02 101.689 126.636 101.689C128.052 101.689 129.553 101.507 131.115 101.15C132.537 100.817 133.983 100.332 135.417 99.6961C136.803 99.0783 138.17 98.3212 139.483 97.443C140.966 96.4436 142.327 95.2686 143.506 93.9542C145.268 91.9978 147.358 89.4964 148.762 87.3643C150.117 85.299 179.201 81.2711 181.638 81.2711C184.075 81.2711 224.237 81.3135 225.525 81.4589C227.798 81.7133 252.847 80.726 254.616 80.726C255.138 80.726 265.676 80.6654 267.985 80.6654C269.388 80.6654 270.823 80.4716 272.378 80.0597C274.116 79.6055 275.666 78.9271 276.985 78.0489C279.616 76.3045 281.153 73.3245 281.044 70.1749C280.983 68.4548 280.442 66.8194 279.513 65.4324C279.543 65.1296 279.604 64.7237 279.707 64.1907C279.908 63.149 280.205 61.9921 280.588 60.7383C281.001 59.4058 281.506 57.9824 282.101 56.5046C282.715 54.9661 283.396 53.4277 284.113 51.9195C284.696 50.696 285 49.3635 285 48.0128C285 46.2685 284.496 42.9372 281.129 40.254V40.26Z" fill="white"/>
<path d="M42.2952 30.9991C41.888 30.9991 41.4626 31.0172 41.019 31.0596C36.8077 31.3443 33.9273 31.6048 32.3898 31.847C32.1468 32.2104 31.8733 32.6768 31.5695 33.2401C31.2656 33.8034 30.8706 34.6029 30.3845 35.6326C29.8983 36.6622 29.2785 38.0069 28.531 39.6604C27.7836 41.3139 26.2096 44.8693 23.8214 50.3205C21.4332 55.7717 19.6466 60.3749 18.4738 64.1302C17.3009 67.8854 16.3894 71.5983 15.7392 75.2748C14.3597 74.9538 13.1443 74.3663 12.093 73.5183C11.0417 72.6704 10.0451 71.4772 9.11536 69.9448C9.40097 69.2967 9.74128 68.5214 10.1484 67.6129C10.5556 66.7043 11.0417 65.5535 11.6069 64.1605C12.172 62.7674 12.8526 61.0714 13.6426 59.0727C14.4326 57.0739 15.5447 54.2272 16.9849 50.5325C18.4251 46.8378 19.3671 44.3727 19.8107 43.1431C20.2543 41.9136 20.6614 40.7385 21.0261 39.6301C21.3907 38.5217 21.7249 37.4315 22.0287 36.3594C22.3326 35.2873 22.606 34.1486 22.8491 32.9373H22.5453C21.0017 32.9373 19.7621 32.5739 18.808 31.847C17.8539 31.1202 17.3799 30.1693 17.3799 29.0003C17.3799 28.6793 17.4285 28.2916 17.5318 27.8495C17.6352 27.4073 17.7628 27.0197 17.9268 26.6987C18.6986 26.8198 19.4582 26.8986 20.2057 26.941C20.9531 26.9834 21.9376 27.0015 23.153 27.0015C25.7053 27.0015 28.0935 26.9289 30.3237 26.7895C32.5539 26.6502 35.805 26.4443 40.0771 26.1839C44.3492 25.9234 47.1384 25.7175 48.4328 25.5782C49.7272 25.4389 50.7238 25.3662 51.4105 25.3662C52.3403 25.3662 53.1728 25.8507 53.902 26.8198C54.6312 27.7889 55.1964 29.1638 55.6036 30.9385C54.3092 30.8174 53.2761 30.7386 52.5043 30.6962C52.0972 30.6538 51.7143 30.6357 51.3497 30.6357C51.3923 30.7144 51.4287 30.7992 51.4713 30.8779C50.2984 31.9258 49.1317 33.5127 47.9771 35.6326C46.8224 37.7525 45.7104 40.1631 44.6348 42.8705C43.5592 45.578 42.5565 48.4308 41.6267 51.441C40.6969 54.4513 39.8826 57.3646 39.196 60.1932C38.5093 63.0218 37.9684 65.6444 37.5856 68.0671C37.2027 70.4899 37.0083 72.4463 37.0083 73.9423C37.0083 74.6267 37.069 75.0507 37.1906 75.2142C36.2973 75.1719 35.6531 75.0204 35.246 74.76C34.8388 74.4995 34.5289 74.2149 34.3041 73.912C34.0792 73.6092 33.8787 73.3063 33.6964 73.0035C33.5141 72.7006 33.2406 72.4705 32.876 72.3069C32.5904 72.1858 32.3473 71.9011 32.1468 71.459C31.9462 71.0168 31.77 70.5202 31.6302 69.975C31.4905 69.4299 31.375 68.8727 31.296 68.3094C31.217 67.7461 31.1745 67.2797 31.1745 66.9163C31.1745 65.4627 31.4054 63.5729 31.8733 61.2532C32.3412 58.9334 32.9489 56.4258 33.6964 53.7426C34.4438 51.0594 35.3067 48.3096 36.279 45.5053C37.2514 42.7009 38.2419 40.0662 39.2567 37.6011C40.2716 35.1359 41.2621 32.9797 42.2344 31.1202C42.2769 31.0778 42.2952 31.0415 42.2952 30.9991Z" fill="black"/>
<path d="M43.8752 90.417C43.31 90.2535 42.9819 89.6478 42.9029 88.5999C42.7388 88.073 42.6294 87.4491 42.5686 86.7223C42.5079 85.9955 42.4775 85.1657 42.4775 84.239C42.4775 83.391 42.6172 82.2281 42.9029 80.7563C43.1885 79.2845 43.5835 77.6188 44.0879 75.7594C44.5922 73.8999 45.2121 71.8951 45.9413 69.7328C46.6705 67.5705 47.4788 65.3839 48.3721 63.1611C49.4659 60.3749 50.42 57.9643 51.2282 55.9231C52.0364 53.8819 52.717 52.1194 53.264 50.6234C53.8109 49.1273 54.2545 47.8978 54.6009 46.9287C54.9473 45.9596 55.2207 45.1298 55.4212 44.4453C55.5853 43.9608 55.8284 43.3733 56.1505 42.6888C56.4726 42.0044 56.8493 41.3079 57.2747 40.5992C57.7001 39.8906 58.1376 39.2243 58.5812 38.6005C59.0248 37.9766 59.432 37.4981 59.7966 37.1771C61.2125 37.377 62.5494 37.7404 63.8074 38.2673C65.0653 38.7943 65.831 39.297 66.1166 39.7815C65.5514 40.3085 64.9012 41.1262 64.172 42.2346C63.4427 43.343 62.7317 44.5544 62.0451 45.8687C61.3584 47.183 60.7264 48.5216 60.1612 49.8965C59.5961 51.2714 59.1707 52.4828 58.8851 53.5306C59.2922 52.8462 59.8148 52.0952 60.4651 51.2896C61.1153 50.484 62.1058 49.3696 63.4427 47.9583C64.9437 46.4259 66.3475 45.2448 67.6662 44.4151C68.9849 43.5853 70.1273 43.1734 71.0996 43.1734C72.6371 43.1734 73.9071 43.5974 74.8977 44.4453C75.8882 45.2933 76.3865 46.3835 76.3865 47.7161C76.3865 50.6233 75.9004 53.5004 74.9281 56.3471C73.9558 59.1938 72.5581 61.768 70.735 64.0696C70.0483 64.96 69.234 65.8079 68.3043 66.6135C67.3745 67.4191 66.4022 68.1398 65.3873 68.7637C64.3725 69.3875 63.382 69.8842 62.4097 70.2476C61.4374 70.611 60.5623 70.7927 59.7966 70.7927C59.0674 70.7927 58.4293 70.6413 57.8824 70.3385C57.3355 70.0356 56.9587 69.6601 56.7582 69.2179C58.3382 68.2912 59.8756 66.9951 61.3766 65.3415C62.8776 63.688 64.2631 61.7801 65.5393 59.6178C66.8154 57.4555 67.9275 55.1236 68.8816 52.6221C69.8356 50.1206 70.5527 47.5767 71.0389 44.9905C69.5014 45.796 68.1098 46.6743 66.8762 47.6252C65.6426 48.5761 64.415 49.8178 63.1997 51.3502C61.7412 53.1248 60.5866 54.5603 59.7358 55.6506C58.8851 56.7408 58.1862 57.6675 57.6393 58.4367C57.0924 59.2059 56.6488 59.9206 56.3024 60.5869C55.956 61.2532 55.5853 62.0708 55.1782 63.0399C54.613 64.3301 53.9506 66.0381 53.2032 68.158C52.4557 70.2779 51.684 72.6522 50.894 75.2748C50.104 77.8974 49.314 80.6957 48.524 83.6636C47.734 86.6315 46.9744 89.5872 46.2451 92.5369C45.8015 92.4582 45.4126 92.1311 45.0905 91.5678C44.7624 91.2044 44.5315 90.944 44.3917 90.7804C44.2519 90.6169 44.0757 90.4957 43.8752 90.417Z" fill="black"/>
<path d="M99.5395 45.899C99.9466 45.899 100.421 45.9716 100.968 46.111C101.514 46.2503 102.013 46.432 102.456 46.6561C102.9 46.8802 103.277 47.1103 103.581 47.3526C103.884 47.5949 104.036 47.819 104.036 48.0189C103.228 49.7148 102.475 51.4228 101.788 53.1369C101.101 54.851 100.512 56.4985 100.026 58.0733C99.5395 59.6481 99.1627 61.1199 98.9014 62.4948C98.6401 63.8697 98.5064 65.0569 98.5064 66.0684C98.5064 67.201 98.6279 68.1398 98.871 68.8848C99.1141 69.6298 99.5212 70.1689 100.086 70.4899C99.6002 70.8109 98.9743 71.0774 98.2026 71.2773C97.4308 71.4771 96.7441 71.5801 96.1364 71.5801C93.9487 71.5801 92.8549 70.0841 92.8549 67.098C92.8549 64.7964 93.6267 61.6468 95.1641 57.6493C94.3559 59.4966 93.4201 61.235 92.3687 62.8643C91.3174 64.4936 90.2418 65.9291 89.148 67.1768C88.0542 68.4245 86.9482 69.436 85.8361 70.2234C84.724 71.0047 83.697 71.4771 82.7673 71.6407C81.2663 71.6407 80.0509 70.9623 79.1211 69.6056C78.1914 68.2488 77.7234 66.5166 77.7234 64.4027C77.7234 62.1314 78.2096 59.7389 79.1819 57.2253C80.1542 54.7117 81.4 52.3798 82.9192 50.2296C84.4384 48.0794 86.0913 46.2866 87.8719 44.8451C89.6524 43.4035 91.3782 42.6828 93.0372 42.6828C93.4444 42.8039 93.9001 43.0462 94.4045 43.4096C94.9089 43.773 95.395 44.197 95.863 44.6755C96.3309 45.16 96.7259 45.6506 97.048 46.1534C97.37 46.6561 97.5523 47.0922 97.5949 47.4556C95.9723 47.6979 94.3012 48.4853 92.5814 49.8117C90.8617 51.1442 89.2999 52.7432 87.9022 54.6148C86.5045 56.4864 85.3621 58.4912 84.4688 60.6293C83.5755 62.7613 83.1319 64.7601 83.1319 66.6135C83.1319 67.3766 83.4175 67.8612 83.9826 68.0611C85.1555 67.8188 86.5167 66.8194 88.0542 65.0629C89.5916 63.3064 91.4572 60.5929 93.6449 56.9164C94.0521 56.1896 94.5078 55.384 95.0122 54.4937C95.5166 53.6033 96.0331 52.6766 96.5618 51.7075C97.0905 50.7384 97.607 49.7572 98.1114 48.7699C98.6158 47.7827 99.0959 46.8196 99.5395 45.8929V45.899Z" fill="black"/>
<path d="M120.991 49.1697C120.869 48.8487 120.827 48.6427 120.869 48.564C120.669 48.3641 120.304 48.1703 119.775 47.9886C119.247 47.8069 118.663 47.6676 118.013 47.5646C117.363 47.4616 116.755 47.4011 116.19 47.3829C115.625 47.3647 115.218 47.3708 114.975 47.4132C114.568 47.4919 114.185 47.7039 113.82 48.0492C113.456 48.3944 113.133 48.7881 112.848 49.2303C112.562 49.6724 112.331 50.0964 112.149 50.5022C111.967 50.908 111.876 51.1866 111.876 51.3502C110.824 51.229 109.87 50.9262 109.019 50.4416C108.169 49.9571 107.5 49.0485 107.014 47.716C107.664 45.899 108.333 44.5241 109.019 43.5974C109.706 42.6707 110.66 41.9802 111.876 41.538C113.942 41.9014 115.917 42.4344 117.801 43.1431C119.684 43.8518 121.374 44.6876 122.875 45.6567C123.403 45.2145 123.908 44.7785 124.394 44.3545C124.88 43.9305 125.488 43.555 126.217 43.2339C127.268 43.5186 128.162 44.3666 128.891 45.7778C128.648 46.5047 128.301 47.1225 127.858 47.6252C127.414 48.1279 126.916 48.6125 126.369 49.0788C125.822 49.5452 125.263 49.9995 124.698 50.4416C124.455 50.6415 124.23 50.8474 124.029 51.0473C123.95 51.4107 123.847 51.7741 123.725 52.1376C123.403 53.1854 122.935 54.2393 122.328 55.2871C121.72 56.335 120.979 57.3586 120.11 58.3458C119.241 59.3331 118.274 60.2114 117.223 60.9806L115.947 61.8891C116.233 62.1314 116.512 62.3555 116.798 62.5554C117.813 63.5669 118.639 64.7782 119.289 66.1895C119.94 67.6007 120.499 69.1453 120.565 70.8533C120.809 77.0676 108.94 89.6599 106.953 90.6895C104.966 91.7192 102.979 92.2341 100.998 92.2341C99.9831 92.2341 111.086 83.1245 114.428 71.0956C115.394 67.625 114.689 65.281 113.395 64.3119L112.969 63.8879C112.805 63.8879 112.647 63.9061 112.483 63.9485L112.544 63.7062C112.422 63.7486 112.319 63.7849 112.24 63.8273C111.31 64.112 110.599 64.2513 110.113 64.2513C109.341 64.2513 108.685 63.8758 108.138 63.1308C107.591 62.3858 107.318 61.241 107.318 59.7086C108.855 59.7086 110.344 59.3755 111.784 58.7093C113.225 58.043 114.659 57.2435 116.099 56.3168C117.539 55.3901 118.742 54.1545 119.715 52.6221C120.322 51.653 120.748 50.5022 120.991 49.1697Z" fill="black"/>
<path d="M179.542 54.3241C180.125 53.1733 180.581 52.2769 180.909 51.6288C183.139 46.7833 184.835 44.3605 186.014 44.3605C186.822 44.3605 187.581 44.5725 188.292 44.9965C189.003 45.4205 189.496 46.0383 189.781 46.8438C189.417 48.0552 188.821 49.5089 187.989 51.2048C187.156 52.9007 186.317 54.6875 185.467 56.5651C184.616 58.4427 183.856 60.2901 183.188 62.1072C182.519 63.9242 182.185 65.5596 182.185 67.0132C182.185 67.8612 182.307 68.4184 182.55 68.6789C182.793 68.9393 183.139 69.0726 183.583 69.0726C184.069 69.0726 184.525 68.9817 184.95 68.8C185.376 68.6183 185.692 68.5274 185.892 68.5274C186.135 68.691 186.275 68.8909 186.317 69.1331C186.36 69.3754 186.378 69.5995 186.378 69.7994C185.57 70.4475 184.737 70.9805 183.887 71.4045C183.036 71.8284 182.082 72.0404 181.031 72.0404C180.058 72.0404 179.256 71.8769 178.63 71.5559C177.998 71.2349 177.488 70.7867 177.081 70.2234C176.673 69.6601 176.394 69.012 176.23 68.2852C176.066 67.5583 175.987 66.7709 175.987 65.923C175.987 64.5481 176.169 63.1792 176.534 61.8043C176.613 61.4833 176.716 61.1562 176.838 60.8352C175.422 61.9255 173.738 62.7128 171.794 63.1974C170.985 63.1187 170.135 62.9067 169.241 62.5614C168.348 62.2162 167.522 61.6832 166.75 60.9564C165.978 60.3083 165.273 59.4603 164.623 58.4125C163.851 59.9873 163.104 61.6408 162.375 63.3791C161.038 67.9399 160.035 70.6595 159.366 71.5256C158.698 72.3917 158.121 72.9671 157.635 73.2518C156.784 72.7673 156.158 72.0889 155.751 71.2227C155.344 70.3566 155.04 69.4541 154.839 68.5274C154.839 67.7582 154.949 66.7891 155.173 65.6201C155.398 64.4512 155.702 63.1489 156.085 61.7135C156.468 60.278 156.948 58.7759 157.513 57.2011C158.078 55.6263 158.704 54.0515 159.397 52.4767C160.934 48.9213 162.344 46.1352 163.62 44.1182C164.896 42.1013 165.699 41.0111 166.021 40.8475C167.072 41.1685 168.069 41.8893 168.998 42.9977C169.928 44.1061 170.621 45.3296 171.064 46.6621C170.621 47.7524 169.466 49.8541 167.601 52.9613C167.601 53.0037 167.582 53.04 167.54 53.0824C168.105 55.384 168.895 57.0194 169.91 57.9885C170.961 59.0363 172.116 59.642 173.374 59.8055C174.911 59.4421 176.181 58.7274 177.172 57.6554C178.162 56.5833 178.952 55.4749 179.542 54.3241Z" fill="black"/>
<path d="M208.917 68.8909C208.146 68.2428 207.629 67.4372 207.368 66.4681C207.106 65.499 206.973 64.6692 206.973 63.9848C206.973 63.1368 207.076 62.41 207.277 61.8043C207.113 61.8043 206.748 62.1253 206.183 62.7734C205.618 63.4215 204.998 64.1847 204.329 65.075C203.661 65.9654 203.005 66.8315 202.354 67.6795C201.704 68.5274 201.218 69.1513 200.896 69.5571C200.367 70.1204 199.875 70.5686 199.407 70.8896C198.939 71.2106 198.568 71.3923 198.283 71.4347C197.633 71.3923 196.958 71.2652 196.247 71.041C195.536 70.8169 194.868 70.508 194.242 70.1022C193.616 69.6964 193.069 69.2119 192.601 68.6486C192.133 68.0853 191.823 67.4372 191.659 66.7104C191.659 65.5777 191.689 64.651 191.75 63.9242C191.811 63.1974 191.945 62.41 192.145 61.562C192.51 60.0297 193.045 58.2913 193.756 56.3531C194.467 54.4149 195.287 52.507 196.217 50.6294C197.146 48.7518 198.192 46.9953 199.346 45.3599C200.501 43.7246 201.728 42.4405 203.023 41.5138C203.387 41.5138 203.813 41.5441 204.299 41.6046C204.785 41.6652 205.283 41.7742 205.788 41.9378C206.292 42.1013 206.778 42.2891 207.246 42.5132C207.714 42.7373 208.109 43.028 208.431 43.3914C208.067 43.7972 207.143 45.1479 205.666 47.4495C204.19 49.7511 202.537 53.0642 200.714 57.3828C200.513 57.8249 200.27 58.473 199.984 59.321C199.699 60.169 199.419 61.0593 199.134 61.986C198.848 62.9127 198.617 63.8213 198.435 64.7116C198.252 65.602 198.161 66.3046 198.161 66.8315C198.161 67.1525 198.21 67.3948 198.313 67.5583C198.417 67.7219 198.508 67.843 198.587 67.9218C199.194 67.6795 199.966 67.0132 200.896 65.923C201.826 64.8328 203.126 63.155 204.785 60.8958C205.192 60.3325 205.666 59.6844 206.213 58.9576C206.76 58.2308 207.319 57.4555 207.884 56.6257C208.449 55.7959 208.99 54.9419 209.495 54.0515C209.999 53.1612 210.418 52.2769 210.74 51.3865C210.905 50.9019 211.117 50.3265 211.379 49.6603C211.64 48.994 211.968 48.2975 212.351 47.5707C212.734 46.8438 213.183 46.1049 213.688 45.3599C214.192 44.6149 214.794 43.9184 215.48 43.2703C216.009 43.2703 216.574 43.3309 217.182 43.452C217.79 43.5731 218.367 43.7246 218.914 43.9063C219.461 44.088 219.935 44.2878 220.342 44.5119C220.749 44.736 221.053 44.9662 221.253 45.2085C220.524 46.9831 219.716 48.7396 218.823 50.478C217.929 52.2163 217.103 53.9183 216.331 55.596C215.559 57.2738 214.915 58.9394 214.387 60.5929C213.858 62.2465 213.597 63.8637 213.597 65.4384C213.597 66.2864 213.67 67.0253 213.809 67.6492C213.949 68.2731 214.101 68.8 214.265 69.224C214.429 69.648 214.581 69.9993 214.721 70.2839C214.861 70.5686 214.934 70.8109 214.934 71.0108C214.934 71.0532 214.891 71.1137 214.812 71.1925C214.769 71.2349 214.733 71.253 214.69 71.253C214.405 71.253 214.04 71.1925 213.597 71.0713C213.153 70.9502 212.655 70.7806 212.108 70.5565C211.561 70.3324 211.014 70.0841 210.467 69.7994C209.92 69.5147 209.404 69.2119 208.917 68.8909Z" fill="black"/>
<path d="M231.28 58.2913C230.916 58.7335 230.594 59.1999 230.308 59.6844C229.336 61.2592 228.515 63.0581 227.847 65.075C227.178 67.092 226.54 69.4966 225.933 72.2827C225.568 72.2403 225.131 72.1071 224.626 71.889C224.122 71.6649 223.611 71.3924 223.107 71.0713C222.603 70.7443 222.147 70.4051 221.74 70.0417C221.333 69.6783 221.071 69.333 220.95 69.012C221.15 67.843 221.509 66.2985 222.013 64.3785C222.517 62.4585 223.119 60.4234 223.806 58.2611C224.492 56.0988 225.222 53.9304 225.993 51.7499C226.765 49.5694 227.513 47.6131 228.242 45.8747C228.771 44.621 229.232 43.6458 229.64 42.9372C230.047 42.2285 230.49 41.6349 230.977 41.1504C231.542 41.2291 232.131 41.3745 232.739 41.5744C233.346 41.7742 233.936 42.0165 234.501 42.3012C235.066 42.5859 235.577 42.8766 236.02 43.1794C236.464 43.4823 236.81 43.773 237.053 44.0577C235.96 45.3478 234.999 46.8257 234.167 48.4792C233.334 50.1327 232.496 52.2526 231.645 54.8389C233.833 52.9007 235.765 51.0413 237.448 49.2666C239.132 47.4919 240.7 45.5113 242.158 43.3309C242.401 43.131 242.826 43.028 243.434 43.028C243.999 43.028 244.546 43.1189 245.075 43.3006C245.604 43.4823 245.968 43.7367 246.169 44.0577C245.44 45.9959 245.075 47.9159 245.075 49.8117C245.075 51.5864 242.14 50.375 241.733 49.206C239.91 50.4598 235.188 54.0515 233.893 55.2629H234.015C234.823 55.3053 235.613 55.4749 236.385 55.7777C237.157 56.0806 237.831 56.4864 238.421 56.9891C239.01 57.4918 239.484 58.0915 239.849 58.7759C240.213 59.4603 240.396 60.2477 240.396 61.1381C240.396 61.5015 240.377 61.8649 240.335 62.2283C240.292 65.0932 240.274 67.1162 240.274 68.2852C240.195 69.2543 240.347 69.9205 240.73 70.2839C241.113 70.6474 241.508 70.8291 241.915 70.8291C242.28 70.8291 242.662 70.7261 243.07 70.5262C243.477 70.3263 243.799 70.2234 244.042 70.2234C244.206 70.3021 244.327 70.4778 244.406 70.7382C244.485 70.9987 244.528 71.2349 244.528 71.4348C244.242 71.7194 243.92 71.998 243.556 72.2827C243.191 72.5613 242.796 72.8278 242.371 73.0701C241.945 73.3124 241.538 73.5123 241.155 73.6758C240.772 73.8393 240.414 73.9181 240.092 73.9181C239.12 73.9181 238.39 73.7848 237.904 73.5244C237.418 73.2639 237.011 72.7975 236.689 72.1313C236.367 71.465 236.154 70.5565 236.051 69.4057C235.947 68.2549 235.978 66.6317 236.142 64.5299C236.306 62.4282 236.385 61.0593 236.385 60.4112C236.385 59.3634 236.16 58.6245 235.716 58.2005C235.273 57.7765 234.702 57.5645 234.015 57.5645C233.486 57.5645 232.921 57.6675 232.313 57.8674C231.949 57.9885 231.602 58.1278 231.28 58.2913Z" fill="black"/>
<path d="M270.78 45.7536C271.187 45.7536 271.661 45.8263 272.208 45.9656C272.755 46.1049 273.253 46.2866 273.697 46.5107C274.141 46.7348 274.517 46.965 274.821 47.2073C275.125 47.4495 275.277 47.6736 275.277 47.8735C274.469 49.5694 273.715 51.2775 273.029 52.9916C272.342 54.7057 271.752 56.3531 271.266 57.9279C270.78 59.5027 270.403 60.9745 270.142 62.3494C269.881 63.7244 269.747 64.9115 269.747 65.923C269.747 67.0556 269.869 67.9944 270.112 68.7394C270.355 69.4844 270.762 70.0235 271.327 70.3445C270.841 70.6655 270.215 70.932 269.443 71.1319C268.671 71.3318 267.985 71.4348 267.377 71.4348C265.189 71.4348 264.096 69.9387 264.096 66.9527C264.096 64.6511 264.867 61.5015 266.405 57.5039C265.597 59.3513 264.661 61.0896 263.609 62.7189C262.558 64.3482 261.482 65.7837 260.389 67.0314C259.295 68.2791 258.189 69.2906 257.077 70.078C255.965 70.8594 254.938 71.3318 254.008 71.4953C252.507 71.4953 251.292 70.817 250.362 69.4602C249.432 68.1035 248.964 66.3712 248.964 64.2574C248.964 61.986 249.45 59.5936 250.423 57.08C251.395 54.5664 252.641 52.2345 254.16 50.0843C255.679 47.9341 257.332 46.1413 259.113 44.6997C260.893 43.2582 262.619 42.5374 264.278 42.5374C264.685 42.6586 265.141 42.9008 265.645 43.2642C266.15 43.6276 266.636 44.0516 267.104 44.5301C267.572 45.0147 267.967 45.5053 268.289 46.008C268.611 46.5107 268.793 46.9468 268.836 47.3102C267.213 47.5525 265.542 48.3399 263.822 49.6664C262.102 50.9989 260.541 52.5979 259.143 54.4695C257.745 56.341 256.603 58.3459 255.709 60.4839C254.816 62.6159 254.373 64.6147 254.373 66.4681C254.373 67.2313 254.658 67.7158 255.223 67.9157C256.396 67.6734 257.757 66.6741 259.295 64.9176C260.832 63.1611 262.698 60.4476 264.886 56.7711C265.293 56.0442 265.748 55.2387 266.253 54.3483C266.757 53.458 267.274 52.5313 267.802 51.5622C268.331 50.5931 268.848 49.6118 269.352 48.6246C269.856 47.6373 270.337 46.6743 270.78 45.7476V45.7536Z" fill="black"/>
<path d="M65.1929 30.8234V7.49234H68.4744V22.2651L69.8113 17.1228L72.8133 7.49234H77.2191V30.8295H73.5486V14.4275L72.0598 20.1391L68.9606 30.8234H65.1868H65.1929Z" fill="black"/>
<path d="M86.8145 30.8234V7.49234H90.4849V17.4983H94.6658V7.49234H98.3362V30.8295H94.6658V20.8356H90.4849V30.8295H86.8145V30.8234Z" fill="black"/>
<path d="M107.561 33.9185V27.5103H109.05C109.366 27.1348 109.591 26.7108 109.724 26.2505C109.858 25.7902 109.943 25.2026 109.98 24.4879L110.648 7.49234H121.094V27.5042H122.692V33.9124H119.022V30.8234H111.231V33.9124H107.561V33.9185ZM112.605 27.5103H117.424V10.8297H114.325L113.656 24.4274C113.614 25.2814 113.504 25.9355 113.34 26.3837C113.176 26.8319 112.933 27.2075 112.611 27.5103H112.605Z" fill="black"/>
<path d="M131.03 7.49235H134.7L136.681 15.445L137.818 20.8962L138.681 15.4935L140.364 7.4863H144.034L140.103 24.8514C139.92 25.7478 139.72 26.5049 139.495 27.1348C139.27 27.7647 138.978 28.3401 138.62 28.8671C138.261 29.394 137.824 29.8059 137.313 30.1027C136.803 30.3994 136.177 30.6114 135.436 30.7507C134.694 30.8901 133.831 30.9203 132.841 30.8598V27.5406C133.844 27.6072 134.603 27.5103 135.114 27.2499C135.624 26.9894 135.952 26.4625 136.092 25.6569L136.122 25.4449L131.018 7.49235H131.03Z" fill="black"/>
<path d="M152.785 25.2269V13.0889C152.785 11.2113 153.253 9.76368 154.183 8.75218C155.113 7.74068 156.48 7.2319 158.285 7.2319C160.09 7.2319 161.481 7.74068 162.472 8.75218C163.462 9.76368 163.954 11.2113 163.954 13.0889V15.3663H160.284V12.8587C160.284 11.3263 159.652 10.5632 158.382 10.5632C157.112 10.5632 156.462 11.3263 156.462 12.8587V25.451C156.462 26.9713 157.1 27.7284 158.382 27.7284C159.664 27.7284 160.284 26.9713 160.284 25.451V22.1136H163.954V25.2208C163.954 27.0984 163.462 28.54 162.472 29.5575C161.481 30.5751 160.09 31.0778 158.285 31.0778C156.48 31.0778 155.119 30.569 154.183 29.5575C153.247 28.546 152.785 27.0984 152.785 25.2208V25.2269Z" fill="black"/>
<path d="M172.274 10.8236V7.4863H183.656V10.8236H179.803V30.8234H176.133V10.8236H172.28H172.274Z" fill="black"/>
<path d="M192.607 30.8234V7.49234H198.022C199.839 7.49234 201.206 7.989 202.123 8.97627C203.041 9.96354 203.503 11.393 203.503 13.2706V16.299C203.503 18.1767 203.047 19.6061 202.13 20.5873C201.212 21.5685 199.845 22.0591 198.034 22.0591H196.29V30.8295H192.619L192.607 30.8234ZM196.277 18.7339H198.022C198.629 18.7339 199.085 18.5643 199.377 18.2312C199.668 17.898 199.82 17.3226 199.82 16.5231V13.0223C199.82 12.2167 199.674 11.6534 199.377 11.3203C199.079 10.9872 198.629 10.8236 198.022 10.8236H196.277V18.7339Z" fill="black"/>
<path d="M212.564 30.8234V7.49234H215.845V22.2651L217.182 17.1228L220.184 7.49234H224.59V30.8295H220.919V14.4275L219.43 20.1391L216.331 30.8234H212.557H212.564Z" fill="black"/>
<path d="M233.583 30.8234C233.814 30.1935 233.924 29.2486 233.924 27.9949V24.3971C233.924 23.107 234.106 22.047 234.477 21.2233C234.847 20.3995 235.473 19.7999 236.355 19.4304C234.756 18.6794 233.954 17.1046 233.954 14.694V12.8527C233.954 11.0296 234.392 9.67887 235.261 8.80062C236.13 7.92238 237.509 7.48022 239.393 7.48022H244.941V30.8174H241.271V21.3141H240.001C239.162 21.3141 238.554 21.5443 238.172 21.9985C237.789 22.4528 237.6 23.216 237.6 24.2941V27.9525C237.6 28.5521 237.582 29.0427 237.546 29.4243C237.509 29.8059 237.473 30.0724 237.442 30.2056C237.412 30.3389 237.351 30.5448 237.266 30.8174H233.596L233.583 30.8234ZM237.631 15.5298C237.631 16.4323 237.813 17.0683 238.184 17.4438C238.554 17.8193 239.101 18.0071 239.831 18.0071H241.265V10.8297H239.502C238.852 10.8297 238.372 11.0235 238.074 11.4051C237.777 11.7927 237.625 12.3984 237.625 13.2343V15.5298H237.631Z" fill="black"/>
<path d="M116.069 88.4485C116.069 88.2062 116.148 87.9821 116.312 87.7823C116.476 87.5824 116.658 87.3764 116.859 87.1766C117.345 87.6187 117.758 87.964 118.104 88.2062C118.451 88.4485 118.773 88.6484 119.077 88.8119C119.381 88.9755 119.697 89.0724 120.019 89.1148C120.341 89.1572 120.73 89.1753 121.173 89.1753C123.276 89.1753 125.287 88.6181 127.189 87.5097C129.091 86.4013 130.884 84.7962 132.567 82.6945C134.251 80.5928 135.776 78.0307 137.155 75.0023C138.535 71.9738 139.75 68.5396 140.802 64.7056C140.315 65.1901 139.72 65.7231 139.009 66.3106C138.298 66.8982 137.563 67.4493 136.791 67.9763C136.019 68.5032 135.259 68.9878 134.512 69.4299C133.765 69.8721 133.126 70.1992 132.598 70.399C131.911 70.2779 131.273 69.9872 130.684 69.5208C130.094 69.0544 129.578 68.479 129.134 67.7946C128.69 67.1102 128.344 66.3288 128.101 65.4627C127.858 64.5966 127.736 63.6759 127.736 62.7068C127.736 61.132 128.028 59.5148 128.617 57.8613C129.201 56.2078 129.985 54.5785 130.957 52.9855C131.929 51.3926 133.072 49.8844 134.39 48.4732C135.709 47.0619 137.101 45.8263 138.583 44.7785C140.06 43.7306 141.561 42.8887 143.08 42.2649C144.6 41.641 146.088 41.326 147.547 41.326C149.005 41.326 150.026 41.6168 150.737 42.2043C151.448 42.7918 151.965 43.7912 152.287 45.2024C151.843 44.9602 151.272 44.839 150.585 44.839C149.613 44.839 148.489 45.2206 147.213 45.9898C145.937 46.7591 144.642 47.7584 143.323 48.988C142.005 50.2175 140.698 51.6348 139.404 53.2278C138.109 54.8208 136.961 56.4501 135.97 58.1036C134.98 59.7571 134.166 61.3743 133.54 62.9491C132.914 64.5239 132.598 65.9351 132.598 67.1889C132.598 67.4736 132.616 67.6432 132.659 67.7037C132.701 67.7643 132.762 67.7946 132.841 67.7946C133.205 67.7946 133.704 67.5947 134.33 67.1889C134.956 66.7831 135.667 66.2682 136.457 65.6444C137.247 65.0205 138.067 64.2937 138.918 63.4639C139.768 62.6341 140.577 61.7983 141.348 60.9503C143.093 59.0121 144.679 56.8438 146.119 54.4392C147.559 52.0346 148.701 49.7027 149.552 47.4435C150.646 47.5222 151.618 47.7039 152.469 47.9886C153.32 48.2733 153.909 48.5761 154.231 48.8971C152.852 52.0467 151.752 54.6936 150.92 56.8316C150.087 58.9697 149.37 60.8716 148.762 62.5251C147.668 65.4324 146.648 68.0853 145.693 70.4899C144.739 72.8884 143.767 75.1113 142.777 77.1524C141.786 79.1936 140.71 81.0894 139.556 82.8459C138.401 84.6024 137.095 86.2862 135.636 87.9034C134.949 88.6726 134.166 89.3449 133.297 89.9324C132.428 90.52 131.534 91.0106 130.623 91.4164C129.711 91.8222 128.818 92.125 127.949 92.3249C127.08 92.5248 126.278 92.6278 125.549 92.6278C124.576 92.6278 123.586 92.5187 122.571 92.2946C121.556 92.0705 120.614 91.7677 119.745 91.3861C118.876 91.0045 118.117 90.5563 117.466 90.0536C116.816 89.5509 116.354 89.0118 116.069 88.4485Z" fill="black"/>
<path d="M79.4857 80.0961C79.4857 80.0961 63.6858 70.4051 59.432 84.3359C55.5124 97.1644 84.3472 110.38 84.3472 110.38C84.3472 110.38 93.2681 103.385 98.9317 98.8724C111.086 89.1814 115.947 80.7018 115.947 80.7018L112.909 75.2506C112.909 75.2506 108.047 84.3359 95.2856 95.844C88.911 101.592 83.7395 104.929 83.7395 104.929C83.7395 104.929 60.702 94.4691 63.6858 85.5473C67.3319 74.6449 80.7011 85.5473 80.7011 85.5473C80.7011 85.5473 82.4269 79.1209 88.601 77.6733C98.9317 75.2506 97.7164 87.3643 97.7164 87.3643C97.7164 87.3643 100.755 81.3075 97.7164 77.6733C93.578 72.7249 87.3857 73.4335 83.1318 76.462C80.2514 78.5152 79.4857 80.0961 79.4857 80.0961Z" fill="black"/>
<path d="M251.231 81.2832H160.509C152.545 81.2832 146.088 87.7169 146.088 95.6532C146.088 103.589 152.545 110.023 160.509 110.023H251.231C259.195 110.023 265.651 103.589 265.651 95.6532C265.651 87.7169 259.195 81.2832 251.231 81.2832Z" fill="black"/>
<path d="M189.447 90.9379H185.509V88.3213H196.229V90.9379H192.291V101.216H189.447V90.9379Z" fill="white"/>
<path d="M196.156 103.536L197.098 101.513C197.468 101.731 197.93 101.901 198.301 101.901C198.781 101.901 199.042 101.755 199.279 101.259L195.396 91.3497H198.374L200.628 98.0729L202.792 91.3497H205.709L201.905 101.465C201.145 103.47 200.337 104.227 198.653 104.227C197.639 104.227 196.879 103.966 196.156 103.542V103.536Z" fill="white"/>
<path d="M206.231 98.3454C206.231 96.1892 207.878 95.1959 210.224 95.1959C211.221 95.1959 211.944 95.3594 212.643 95.6017V95.4381C212.643 94.2752 211.919 93.6332 210.516 93.6332C209.446 93.6332 208.686 93.8331 207.781 94.1662L207.076 92.0281C208.164 91.5496 209.239 91.2347 210.923 91.2347C212.454 91.2347 213.566 91.6405 214.265 92.337C215.006 93.0759 215.335 94.1601 215.335 95.4866V101.216H212.618V100.15C211.938 100.907 210.99 101.404 209.622 101.404C207.757 101.404 206.219 100.338 206.219 98.3454H206.231ZM212.679 97.7397V97.2431C212.199 97.025 211.573 96.8736 210.886 96.8736C209.683 96.8736 208.948 97.3521 208.948 98.2727C208.948 99.0299 209.574 99.472 210.479 99.472C211.792 99.472 212.679 98.7512 212.679 97.7397Z" fill="white"/>
<path d="M226.759 101.216H223.952V93.7362H220.573V101.216H217.765V91.3437H226.765V101.216H226.759Z" fill="white"/>
<path d="M228.795 96.2982C228.795 93.4818 230.958 91.162 233.985 91.162C235.85 91.162 236.999 91.8646 237.922 92.8943L236.276 94.5538C235.668 93.9845 235.072 93.5787 233.966 93.5787C232.563 93.5787 231.566 94.8143 231.566 96.3043C231.566 97.7943 232.544 99.0299 234.082 99.0299C235.024 99.0299 235.674 98.6241 236.355 97.982L238.001 99.6416C237.041 100.689 235.929 101.447 233.954 101.447C230.976 101.447 228.801 99.1631 228.801 96.3103L228.795 96.2982Z" fill="white"/>
<path d="M238.98 96.2982C238.98 93.4818 240.991 91.162 243.878 91.162C247.184 91.162 248.703 93.724 248.703 96.5223C248.703 96.7464 248.685 97.0008 248.666 97.2613H241.775C242.055 98.5332 242.942 99.1934 244.194 99.1934C245.136 99.1934 245.822 98.8966 246.594 98.1819L248.204 99.5992C247.281 100.744 245.95 101.441 244.157 101.441C241.18 101.441 238.98 99.3569 238.98 96.3043V96.2982ZM245.968 95.5048C245.804 94.251 245.063 93.403 243.878 93.403C242.693 93.403 241.957 94.2328 241.733 95.5048H245.962H245.968Z" fill="white"/>
<path d="M172.286 94.3237C172.286 90.6532 169.296 87.6732 165.613 87.6732C161.931 87.6732 158.941 90.6532 158.941 94.3237C158.941 96.7828 160.278 98.9269 162.271 100.078C162.271 100.078 163.48 100.841 164.483 102.04C165.304 103.021 165.62 103.881 165.62 103.881C165.62 103.881 165.972 103.027 166.798 102.04C167.801 100.841 168.992 100.078 168.992 100.078H168.962C170.955 98.9329 172.292 96.7828 172.292 94.3237H172.286ZM165.589 97.0553C164.198 97.0553 163.073 95.9348 163.073 94.5478C163.073 93.1607 164.198 92.0402 165.589 92.0402C166.981 92.0402 168.105 93.1607 168.105 94.5478C168.105 95.9348 166.981 97.0553 165.589 97.0553Z" fill="white"/>
</g>
<defs>
<clipPath id="clip0_7_4">
<rect width="285" height="118" fill="white"/>
</clipPath>
</defs>
</svg>
