<svg width="34" height="27" viewBox="0 0 34 27" fill="none" xmlns="http://www.w3.org/2000/svg">
<path fill-rule="evenodd" clip-rule="evenodd" d="M33.2278 0.19494C32.7935 -0.175392 31.6836 0.19494 31.6836 0.19494L1.77704 11.0821C1.77704 11.0821 0.480182 11.3598 0.426632 12.1891C0.365398 13.134 1.77704 13.48 1.77704 13.48L8.91643 16.0649L12.0035 24.922C12.0035 24.922 12.5335 26.2606 13.7402 25.1074C14.9459 23.9538 17.9851 21.416 17.9851 21.416L25.8958 26.5833C25.8958 26.5833 26.792 27.1695 27.4388 26.9521C28.011 26.7601 28.2114 25.2918 28.2114 25.2918L33.4203 1.48638C33.4203 1.48638 33.6619 0.563274 33.2278 0.19494ZM13.5465 17.7262L12.9675 22.7075L10.6532 15.3268L27.4388 4.8074L13.5465 17.7262Z" fill="#34AADF"/>
</svg>
