<svg width="29" height="19" viewBox="0 0 29 19" fill="none" xmlns="http://www.w3.org/2000/svg">
<path fill-rule="evenodd" clip-rule="evenodd" d="M28.0891 9.21433C28.085 9.20994 28.0808 9.2056 28.0765 9.20131L19.7532 0.87823C19.5443 0.669496 19.2055 0.669496 18.9965 0.87823C18.7877 1.08696 18.7877 1.42642 18.9965 1.63515L26.3618 9.00018H1.45312C1.17696 9.00018 0.953125 9.2236 0.953125 9.49973C0.953125 9.77635 1.17696 9.99977 1.45312 9.99977H26.522L18.9719 17.5502C18.7766 17.7453 18.7766 18.0619 18.9719 18.257L19.0214 18.3066C19.2166 18.5022 19.5333 18.5022 19.7285 18.3066L28.1014 9.93392C28.2966 9.73886 28.2966 9.42221 28.1014 9.22664L28.0891 9.21433Z" fill="black"/>
</svg>
