<svg width="39" height="23" viewBox="0 0 39 23" fill="none" xmlns="http://www.w3.org/2000/svg">
<path fill-rule="evenodd" clip-rule="evenodd" d="M30.6537 1.9194H37.3781C37.3781 1.9194 39.289 2.22541 37.9893 4.35836C36.6903 6.49233 31.8756 13.5027 31.8756 13.5027C31.8756 13.5027 34.7795 16.8541 36.7674 18.9891C38.7532 21.1215 37.9893 22.646 37.9893 22.646H29.4308C29.4308 22.646 26.2208 19.2176 25.1522 18.3801C24.0819 17.5401 22.7056 18.9891 22.7056 18.9891V22.037C22.7056 22.037 23.3946 22.646 19.649 22.646C15.9057 22.646 11.4729 22.875 6.81233 15.9396C2.15034 9.00678 0.01131 3.89986 0.087984 3.13685C0.162825 2.37537 0.699231 1.9194 0.699231 1.9194H7.42307C7.42307 1.9194 7.88163 2.37537 8.64497 4.35836C9.40933 6.33933 12.3139 10.5303 12.9251 11.0632C13.5357 11.5962 14.5294 11.9777 14.7587 9.84425C14.9886 7.70978 15.2639 5.28855 14.7587 4.35836C13.7656 2.52839 11.7893 2.93724 12.9251 1.9194C13.6885 1.23292 14.836 0.701431 17.8155 0.701431C21.9419 0.701431 22.7056 2.52839 22.7056 2.52839V11.0632C22.7056 11.0632 22.935 12.9687 24.5393 11.0632C26.1448 9.15825 28.4342 3.86439 28.8195 3.13685C29.5067 1.84391 30.6537 1.9194 30.6537 1.9194Z" fill="inherit"/>
</svg>
