<svg width="31" height="32" viewBox="0 0 31 32" fill="none" xmlns="http://www.w3.org/2000/svg">
<path fill-rule="evenodd" clip-rule="evenodd" d="M19.3368 22.9683C17.4249 22.5737 15.2996 21.7215 13.4652 20.2279C11.5412 18.6619 10.0639 16.7098 8.9378 14.5049C7.82657 12.3294 8.0201 10.3039 9.37865 8.79811C10.5679 7.47933 12.0625 7.74381 12.6784 9.38176C12.8247 9.76934 12.9199 10.1838 13.1137 10.544C13.7347 11.7022 13.6736 12.7241 12.6356 13.6142C12.2525 13.942 12.3115 14.321 12.5475 14.7293C13.5977 16.5426 15.0326 17.9288 16.9068 18.8645C17.4824 19.1523 17.9206 19.1098 18.3141 18.5859C18.5046 18.3326 18.7518 18.1213 18.9388 17.865C19.3652 17.2823 19.8661 17.1602 20.5031 17.5143C21.2511 17.9303 22.0048 18.3381 22.7726 18.7141C23.4258 19.0338 23.5782 19.5414 23.4656 20.2148C23.1991 21.8132 21.6501 22.9653 19.3368 22.9683ZM0.540919 31.1268L2.91354 23.0266C1.53565 20.7062 0.810557 18.063 0.810557 15.3409C0.810557 7.07354 7.47959 0.347872 15.6771 0.347872C23.8753 0.347872 30.5442 7.07354 30.5442 15.3409C30.5442 23.6097 23.8753 30.3359 15.6771 30.3359C13.2639 30.3359 10.8833 29.7401 8.75539 28.6098L0.540919 31.1268ZM9.07283 25.7077L9.57274 26.0011C11.4235 27.0812 13.534 27.6532 15.6771 27.6532C22.4083 27.6532 27.8844 22.1303 27.8844 15.3409C27.8844 8.55293 22.4083 3.03005 15.6771 3.03005C8.94592 3.03005 3.47039 8.55293 3.47039 15.3409C3.47039 17.7489 4.16138 20.083 5.46989 22.0908L5.80875 22.6106L4.48948 27.1132L9.07283 25.7077Z" fill="inherit"/>
</svg>
