<svg width="31" height="30" viewBox="0 0 31 30" fill="none" xmlns="http://www.w3.org/2000/svg">
<path fill-rule="evenodd" clip-rule="evenodd" d="M12.8938 29.8346C13.6143 29.8297 14.3195 29.8249 15.0018 29.842C15.5945 29.8368 16.1735 29.8354 16.7421 29.8341C18.5942 29.8298 20.3353 29.8257 22.0736 29.6885C26.3601 29.3511 29.2478 26.7652 29.6855 22.5049C30.1821 17.6665 30.1682 12.7875 29.7467 7.95063C29.3548 3.44964 26.7014 0.882 22.181 0.49947C17.481 0.10329 12.7489 0.09618 8.04918 0.51264C3.4933 0.91695 0.79546 3.85293 0.551025 8.42535C0.312759 12.8807 0.301537 17.3422 0.555954 21.7976C0.80383 26.1354 3.32072 28.9058 7.58995 29.5775C9.37639 29.8583 11.1784 29.8462 12.8938 29.8346ZM27.2847 13.9927C27.2862 14.3837 27.2877 14.7777 27.2905 15.1753C27.2846 15.6862 27.2848 16.2029 27.2849 16.7239C27.2855 18.5728 27.2861 20.4764 27.0176 22.3716C26.6574 24.9114 25.1434 26.4835 22.627 26.8898C21.3497 27.0965 20.0623 27.1634 18.7699 27.1594C17.8727 27.1564 16.9754 27.1637 16.078 27.1711C13.5744 27.1915 11.0707 27.2119 8.56933 27.0094C6.4985 26.8407 4.79908 26.0924 3.82301 24.1317C3.46044 23.4021 3.3134 22.6097 3.26557 21.8184C2.98164 17.1294 2.85677 12.4349 3.35631 7.75557C3.64138 5.0871 5.26678 3.5697 7.93736 3.21204C9.26491 3.0342 10.6006 2.9592 11.9382 2.96277C12.7262 2.96432 13.5143 2.95859 14.3024 2.95286C16.8449 2.93436 19.3873 2.91587 21.9272 3.14211C25.0716 3.42177 26.883 5.10939 27.1424 8.65587C27.2707 10.4128 27.2776 12.1705 27.2847 13.9927ZM7.58775 15.0806C7.58663 19.234 10.9995 22.6477 15.1532 22.6508C19.3262 22.6543 22.749 19.2715 22.7674 15.1287C22.7852 10.9297 19.3903 7.49565 15.2017 7.47843C11.025 7.45869 7.5888 10.8902 7.58775 15.0806ZM20.1058 15.1398C20.0741 17.8772 17.8752 20.0198 15.1243 19.9914C12.348 19.9651 10.2182 17.7652 10.2533 14.9635C10.2866 12.2586 12.5362 10.0907 15.2658 10.1317C17.982 10.1737 20.1375 12.403 20.1058 15.1398ZM23.096 5.37132C22.1249 5.36373 21.2979 6.18753 21.3002 7.15926C21.3029 8.13402 22.1293 8.95731 23.0954 8.9487C24.0236 8.94111 24.8689 8.06613 24.8722 7.11264C24.8755 6.20727 24.0303 5.37891 23.096 5.37132Z" fill="inherit"/>
</svg>
