<svg width="28" height="19" viewBox="0 0 28 19" fill="none" xmlns="http://www.w3.org/2000/svg">
<path fill-rule="evenodd" clip-rule="evenodd" d="M9.20895 0.693006L0.836108 9.06574C0.640864 9.26128 0.640864 9.57743 0.836108 9.77299L0.842529 9.77943C0.848475 9.78601 0.854614 9.79248 0.860944 9.79883L9.18422 18.1219C9.39319 18.3307 9.73193 18.3307 9.9409 18.1219C10.1497 17.9132 10.1497 17.5737 9.9409 17.365L2.57569 9.99997H27.4844C27.7605 9.99997 27.9843 9.77603 27.9843 9.49992C27.9843 9.2238 27.7605 8.99986 27.4844 8.99986H2.41552L9.96562 1.44941C10.1609 1.25436 10.1609 0.937707 9.96562 0.742653L9.91606 0.693006C9.72084 0.497952 9.40416 0.497952 9.20895 0.693006Z" fill="black"/>
</svg>
