<svg width="17" height="23" viewBox="0 0 17 23" fill="none" xmlns="http://www.w3.org/2000/svg">
<path fill-rule="evenodd" clip-rule="evenodd" d="M15.0847 0.488152H1.75344C1.22746 0.488152 0.801168 0.924876 0.801168 1.46443V21.958C0.801168 22.4966 1.22746 22.9333 1.75344 22.9333H15.0847C15.6105 22.9333 16.0368 22.4966 16.0368 21.958V1.46443C16.0368 0.924876 15.6105 0.488152 15.0847 0.488152ZM8.4195 21.3896C7.92614 21.3896 7.52538 20.9787 7.52538 20.4735C7.52538 19.9669 7.92614 19.557 8.4195 19.557C8.91378 19.557 9.31363 19.9669 9.31363 20.4735C9.31363 20.9787 8.91378 21.3896 8.4195 21.3896ZM13.1801 18.0539H3.65784V3.41601H13.1801V18.0539Z" fill="black"/>
</svg>
