<svg width="34" height="27" viewBox="0 0 34 27" fill="none" xmlns="http://www.w3.org/2000/svg">
<path fill-rule="evenodd" clip-rule="evenodd" d="M33.2279 0.195102C32.7935 -0.175257 31.6837 0.195102 31.6837 0.195102L1.77708 11.0823C1.77708 11.0823 0.48025 11.3599 0.4267 12.1888C0.365466 13.1337 1.77708 13.4802 1.77708 13.4802L8.9165 16.0646L12.0035 24.9221C12.0035 24.9221 12.5335 26.2607 13.7403 25.1076C14.9459 23.9539 17.9851 21.4162 17.9851 21.4162L25.8959 26.5834C25.8959 26.5834 26.792 27.1691 27.4389 26.9518C28.0111 26.7597 28.2115 25.292 28.2115 25.292L33.4203 1.48651C33.4203 1.48651 33.6619 0.563409 33.2279 0.195102ZM13.5466 17.7258L12.9676 22.7076L10.6533 15.3264L27.4389 4.80754L13.5466 17.7258Z" fill="black"/>
</svg>
