<svg width="34" height="18" viewBox="0 0 34 18" fill="none" xmlns="http://www.w3.org/2000/svg">
<path fill-rule="evenodd" clip-rule="evenodd" d="M26.5039 1.00894H32.1158C32.1158 1.00894 33.7106 1.25973 32.6259 3.00764C31.5418 4.75605 27.5237 10.4998 27.5237 10.4998C27.5237 10.4998 29.9472 13.2463 31.6062 14.9952C33.2635 16.7426 32.6259 17.9915 32.6259 17.9915H25.4833C25.4833 17.9915 22.8045 15.1822 21.9126 14.4962C21.0194 13.8077 19.8708 14.9952 19.8708 14.9952V17.4925C19.8708 17.4925 20.4457 17.9915 17.3199 17.9915C14.1959 17.9915 10.4964 18.179 6.60694 12.497C2.71632 6.81655 0.931136 2.63221 0.995104 2.00702C1.0576 1.38283 1.50528 1.00894 1.50528 1.00894H7.11667C7.11667 1.00894 7.49936 1.38283 8.13645 3.00764C8.77437 4.6309 11.1983 8.0649 11.7084 8.50113C12.218 8.93785 13.0474 9.25043 13.2387 7.50253C13.4306 5.75361 13.6603 3.76961 13.2387 3.00764C12.4099 1.50849 10.7606 1.84338 11.7084 1.00894C12.3455 0.447066 13.3031 0.011358 15.7897 0.011358C19.2334 0.011358 19.8708 1.50849 19.8708 1.50849V8.50113C19.8708 8.50113 20.0622 10.0621 21.4012 8.50113C22.7411 6.94017 24.6516 2.60282 24.9732 2.00702C25.5467 0.947628 26.5039 1.00894 26.5039 1.00894Z" fill="inherit"/>
</svg>
